:SAMPLES-PER-SECOND 30
:FULLY-SPECIFIED
:DEGREES
792
root  -49.6473 38.7081 -33.4631 5.4129 -51.4777 -5.95715
RightUpLeg  -17.6647 -10.201 5.30869
RightLeg  27.7625 -0.506938 -0.538296
RightFoot  -10.3427 -0.0316264 -4.43851
RightToes  -8.14909e-010 0 -3.6325e-017
Spine  9.61104 -1.01938 10.3274
Spine1  7.50445 0.997315 -2.16357
HEad  -9.87306 6.91631 -5.1529
LeftShoulder1  -0.197021 4.04545 -30.2257
LeftArm  4.3356 -1.39885 -46.6145
LeftForeArm  22.9365 -23.2249 -3.85306
LeftHand  0.0125628 6.68187 3.96462
RightShoulder  -0.427906 -4.78389 26.515
RightArm  9.41527 0.588637 47.4092
RightForeArm  20.7289 6.4096 5.62667
RightHand  -0.158526 3.64452 -2.26658
LeftUpLeg  -4.55159 11.3686 10.9681
LeftLeg  51.2019 2.04066 3.14571
LeftFoot  3.21825 0.755314 -6.10677
LeftToes  1.648e-009 -9.21574e-011 2.55256e-011
793
root  -50.2524 38.7009 -33.0076 5.13541 -52.3413 -5.75012
RightUpLeg  -16.2581 -9.40842 5.04532
RightLeg  27.8629 -0.98989 -0.811884
RightFoot  -11.8275 -0.0981661 -4.49717
RightToes  -8.14909e-010 0 -3.6325e-017
Spine  9.48117 -0.819814 12.1478
Spine1  7.98853 1.88379 -3.7217
HEad  -9.85328 5.58632 -5.06617
LeftShoulder1  -0.120492 3.83735 -30.0091
LeftArm  4.88697 -1.11167 -47.1905
LeftForeArm  22.788 -21.6548 -4.0247
LeftHand  0.00739069 6.41226 4.24923
RightShoulder  -0.42862 -4.79872 26.1508
RightArm  11.5446 6.83341 48.9498
RightForeArm  22.951 8.04503 6.40509
RightHand  -0.0196405 3.4227 -0.51342
LeftUpLeg  -9.01402 7.73608 9.72831
LeftLeg  55.5546 -3.82948 -5.38881
LeftFoot  1.29389 0.939461 -8.53196
LeftToes  1.648e-009 -9.21574e-011 2.55256e-011
794
root  -50.9395 38.8101 -32.5069 4.48111 -53.5232 -5.26599
RightUpLeg  -14.1925 -8.29698 4.25725
RightLeg  27.3034 -0.457071 -0.433456
RightFoot  -12.7506 -0.135307 -3.96164
RightToes  -8.14909e-010 0 -3.6325e-017
Spine  9.60686 -0.376177 13.1995
Spine1  7.85136 2.73668 -4.81877
HEad  -9.30579 6.04735 -5.29982
LeftShoulder1  -0.139431 3.88916 -30.0455
LeftArm  4.71209 -0.263618 -47.4399
LeftForeArm  23.7926 -20.4779 -4.36567
LeftHand  -0.00213988 6.13556 3.82449
RightShoulder  -0.337237 -4.56101 24.835
RightArm  13.8854 12.5167 51.3131
RightForeArm  22.3313 10.062 6.79583
RightHand  -0.0660271 3.61233 -1.10245
LeftUpLeg  -12.7512 5.20631 8.2897
LeftLeg  56.9875 -4.41559 -6.77295
LeftFoot  -0.215823 0.853417 -8.72178
LeftToes  1.648e-009 -9.21574e-011 2.55256e-011
795
root  -51.672 38.9624 -31.9913 3.35992 -54.5325 -4.16821
RightUpLeg  -11.7672 -7.63178 3.21306
RightLeg  26.1146 -0.082113 -0.116415
RightFoot  -13.5941 -0.164716 -3.72459
RightToes  -8.14909e-010 0 -3.6325e-017
Spine  9.33753 0.296129 13.7725
Spine1  8.10551 3.69254 -6.02136
HEad  -8.78348 5.77424 -5.3711
LeftShoulder1  -0.139271 3.88663 -30.148
LeftArm  4.40365 0.451953 -47.2974
LeftForeArm  24.7395 -19.5586 -4.71166
LeftHand  -0.0339681 5.01688 3.44162
RightShoulder  -0.30735 -4.50233 23.6736
RightArm  16.9094 18.1864 53.4905
RightForeArm  21.2792 12.8138 6.50286
RightHand  -0.087992 4.03123 -1.3732
LeftUpLeg  -16.1165 3.35488 6.69441
LeftLeg  55.5746 -2.36819 -3.26452
LeftFoot  -1.58389 0.620459 -7.13146
LeftToes  1.648e-009 -9.21574e-011 2.55256e-011
796
root  -52.4611 39.1374 -31.4958 1.97946 -54.9495 -3.01587
RightUpLeg  -8.85224 -7.5225 2.19241
RightLeg  24.5399 0.417892 0.185108
RightFoot  -14.2763 -0.182448 -3.32768
RightToes  -8.14909e-010 0 -3.6325e-017
Spine  9.61609 0.658848 14.502
Spine1  7.52956 4.46427 -8.09968
HEad  -8.04983 5.9092 -4.71624
LeftShoulder1  -0.0257747 3.57596 -29.7093
LeftArm  2.93005 1.91376 -46.9183
LeftForeArm  25.0126 -18.6637 -5.02971
LeftHand  -0.0105603 5.88167 3.84194
RightShoulder  -0.279552 -4.43147 22.8841
RightArm  21.0568 23.4241 55.5173
RightForeArm  18.721 15.872 5.83304
RightHand  -0.0987515 4.98364 -1.40307
LeftUpLeg  -18.6763 2.15907 5.46551
LeftLeg  51.7491 0.244759 0.752869
LeftFoot  -3.0478 0.392723 -5.17439
LeftToes  1.648e-009 -9.21574e-011 2.55256e-011
